<svg xmlns="http://www.w3.org/2000/svg" xmlns:xlink="http://www.w3.org/1999/xlink" viewBox="0 0 386 381.3"><style>.st0{display:none;}</style><g id="Calque_2"><path d="M381 57.2l-84-43-66 35-78-42-69 36s-62-37-73-42-11 7-11 7v315.3l84 46.7 72.1-37.2 76.9 41.2 65-36s64.6 35.6 72 40.4c12 7.9 16-4.4 16-4.4l-5-317zM133.3 194.9l-10 2v-12.5c-6.9 10.8-12.3 19.2-12.3 19.2s-37.7-54-42-65-18-80.4 42-79c63.5 1.5 44 72 42 77-1.3 3.1-17.5 28.7-29.4 47.3h9.7v11zm20.7.3l-9.7-2 1.3-11 11.7 3.7-3.3 9.3zm8.3 3.7l7.5-8.5 7.5 10.2-9.3 5-5.7-6.7zm11.4 15.3l11.3-3.7 3 9.7-10.7 3-3.6-9zm7.1 19.5l11.2-1.8 2.3 10-10.3 3.7-3.2-11.9zm6.8 21.9l9.4-2.3 4 9-9 5.3-4.4-12zm6.7 22.6l10.3-5 5 9.8-8.7 4.8-6.6-9.6zm23.4 26.4l-8-6.3 7.5-9 7.5 7-7 8.3zm22 10.3l-10-5 3.7-9 9.7 3.7-3.4 10.3zm75.3-58.7c-2 5-42 67-42 67s-3.7-5.3-8.8-12.8l-1.2 6.2h-11v-12l8.8.9c-11.4-16.8-27.1-40.4-29.8-47.2-4.3-11-18-80.4 42-79 63.5 1.4 44 71.9 42 76.9z"/><path d="M123.3 183.9v.5c.1-.2.2-.3.3-.5h-.3zM260.8 305.5c1.2 1.7 2.3 3.4 3.4 4.9l-1.7-2.5-1.7-2.4z"/></g><g id="Calque_3"><path d="M270.5 203.2s31-2 31 29-31 32-31 32-24 1-25-30.5 25-30.5 25-30.5zM109 81.2s31-2 31 29-31 32-31 32-24 1-25-30.5 25-30.5 25-30.5z"/></g><image width="512" height="512" xlink:href="../../../../../../Downloads/3722_-_Route_I-512.png" transform="translate(-64 -64.78)" overflow="visible" id="Calque_1" class="st0"/></svg>